# xmcd
#
# Track frame offsets:
#	150
#	15975
#	32175
#	46200
#	66075
#	80625
#	98475
#	113625
#	127875
#	144525
#	164250
#	180075
#	196275
#	210300
#	230175
#	244725
#	262575
#	277725
#	291975
#	308625
#
# Disc length: 4378 seconds
#
# Revision: 1
# Processed by: cddbd v1.5.1PL2 Copyright (c) Steve Scherf et al.
# Submitted via: audiograbber 1.83.01
#
DISCID=00111814
DTITLE=Country Hit List - Chl9802
DYEAR=1900
DGENRE=Karaoke
TTITLE0=Travis Tritt (Vocal) - Still In Love With You
TTITLE1=Lorrie Morgan (Vocal) - One Of Those Nights Tonight
TTITLE2=Wynonna Judd (Vocal) - Come Some Rainy Day
TTITLE3=Anita Cochran And Steve Warin - What If I Said
TTITLE4=Tim Mcgraw (Vocal) - Just To See You Smile
TTITLE5=Bryan White (Vocal) - One Small Miracle
TTITLE6=Kinleys (Vocal) - Just Between You And Me
TTITLE7=Dixie Chicks (Vocal) - I Can Love You Better
TTITLE8=Kenny Chesney (Vocal) - Chance
TTITLE9=Sammy Kershaw (Vocal) - Love Of My Life
TTITLE10=Travis Tritt - Still In Love With You
TTITLE11=Lorrie Morgan - One Of Those Nights Tonight
TTITLE12=Wynonna Judd - Come Some Rainy Day
TTITLE13=Anita Cochran And Steve Warin - What If I Said
TTITLE14=Tim Mcgraw - Just To See You Smile
TTITLE15=Bryan White - One Small Miracle
TTITLE16=Kinleys - Just Between You And Me
TTITLE17=Dixie Chicks - I Can Love You Better
TTITLE18=Kenny Chesney - Chance
TTITLE19=Sammy Kershaw - Love Of My Life
EXTD=
EXTT0=
EXTT1=
EXTT2=
EXTT3=
EXTT4=
EXTT5=
EXTT6=
EXTT7=
EXTT8=
EXTT9=
EXTT10=
EXTT11=
EXTT12=
EXTT13=
EXTT14=
EXTT15=
EXTT16=
EXTT17=
EXTT18=
EXTT19=
PLAYORDER=
